<mxfile host="app.diagrams.net" modified="2021-02-03T18:15:36.643Z" agent="5.0 (Windows NT 10.0; Win64; x64) AppleWebKit/537.36 (KHTML, like Gecko) Chrome/88.0.4324.104 Safari/537.36" etag="KEt_Qng3-VLcKz30ZoVT" version="14.2.9" type="github">
  <diagram name="Page-1" id="e7e014a7-5840-1c2e-5031-d8a46d1fe8dd">
    <mxGraphModel dx="1038" dy="556" grid="1" gridSize="10" guides="1" tooltips="1" connect="1" arrows="1" fold="1" page="1" pageScale="1" pageWidth="1169" pageHeight="826" background="#ffffff" math="0" shadow="0">
      <root>
        <mxCell id="0" />
        <mxCell id="1" parent="0" />
        <mxCell id="wm7McS8ciFP9YZ9LBugO-41" value="&amp;nbsp;registration" style="rounded=1;whiteSpace=wrap;html=1;" vertex="1" parent="1">
          <mxGeometry x="150" y="230" width="80" height="40" as="geometry" />
        </mxCell>
        <mxCell id="wm7McS8ciFP9YZ9LBugO-42" value="" style="endArrow=none;dashed=1;html=1;dashPattern=1 3;strokeWidth=2;exitX=0.25;exitY=0;exitDx=0;exitDy=0;" edge="1" parent="1" source="wm7McS8ciFP9YZ9LBugO-41">
          <mxGeometry width="50" height="50" relative="1" as="geometry">
            <mxPoint x="100" y="240" as="sourcePoint" />
            <mxPoint x="120" y="190" as="targetPoint" />
          </mxGeometry>
        </mxCell>
        <mxCell id="wm7McS8ciFP9YZ9LBugO-45" value="" style="endArrow=none;dashed=1;html=1;dashPattern=1 3;strokeWidth=2;exitX=0.729;exitY=1.025;exitDx=0;exitDy=0;exitPerimeter=0;" edge="1" parent="1" source="wm7McS8ciFP9YZ9LBugO-49">
          <mxGeometry width="50" height="50" relative="1" as="geometry">
            <mxPoint x="70" y="240" as="sourcePoint" />
            <mxPoint x="150" y="250" as="targetPoint" />
          </mxGeometry>
        </mxCell>
        <mxCell id="wm7McS8ciFP9YZ9LBugO-47" value="name" style="ellipse;whiteSpace=wrap;html=1;" vertex="1" parent="1">
          <mxGeometry x="80" y="150" width="90" height="40" as="geometry" />
        </mxCell>
        <mxCell id="wm7McS8ciFP9YZ9LBugO-49" value="mailid" style="ellipse;whiteSpace=wrap;html=1;" vertex="1" parent="1">
          <mxGeometry x="10" y="190" width="90" height="40" as="geometry" />
        </mxCell>
        <mxCell id="wm7McS8ciFP9YZ9LBugO-50" value="" style="endArrow=none;dashed=1;html=1;dashPattern=1 3;strokeWidth=2;entryX=0;entryY=1;entryDx=0;entryDy=0;" edge="1" parent="1" target="wm7McS8ciFP9YZ9LBugO-41">
          <mxGeometry width="50" height="50" relative="1" as="geometry">
            <mxPoint x="90" y="270" as="sourcePoint" />
            <mxPoint x="140" y="260" as="targetPoint" />
          </mxGeometry>
        </mxCell>
        <mxCell id="wm7McS8ciFP9YZ9LBugO-51" value="" style="endArrow=none;dashed=1;html=1;dashPattern=1 3;strokeWidth=2;entryX=0.5;entryY=0;entryDx=0;entryDy=0;exitX=0.5;exitY=1;exitDx=0;exitDy=0;exitPerimeter=0;" edge="1" parent="1" source="wm7McS8ciFP9YZ9LBugO-53" target="wm7McS8ciFP9YZ9LBugO-41">
          <mxGeometry width="50" height="50" relative="1" as="geometry">
            <mxPoint x="205" y="170" as="sourcePoint" />
            <mxPoint x="244.39" y="230" as="targetPoint" />
          </mxGeometry>
        </mxCell>
        <mxCell id="wm7McS8ciFP9YZ9LBugO-52" value="" style="endArrow=none;dashed=1;html=1;dashPattern=1 3;strokeWidth=2;entryX=0.335;entryY=1.085;entryDx=0;entryDy=0;entryPerimeter=0;" edge="1" parent="1" target="wm7McS8ciFP9YZ9LBugO-41">
          <mxGeometry width="50" height="50" relative="1" as="geometry">
            <mxPoint x="100" y="320" as="sourcePoint" />
            <mxPoint x="204.39" y="319" as="targetPoint" />
          </mxGeometry>
        </mxCell>
        <mxCell id="wm7McS8ciFP9YZ9LBugO-53" value="#reg_id" style="ellipse;whiteSpace=wrap;html=1;" vertex="1" parent="1">
          <mxGeometry x="160" y="120" width="90" height="40" as="geometry" />
        </mxCell>
        <mxCell id="wm7McS8ciFP9YZ9LBugO-54" value="password" style="ellipse;whiteSpace=wrap;html=1;" vertex="1" parent="1">
          <mxGeometry x="10" y="250" width="90" height="40" as="geometry" />
        </mxCell>
        <mxCell id="wm7McS8ciFP9YZ9LBugO-55" value="created_on" style="ellipse;whiteSpace=wrap;html=1;" vertex="1" parent="1">
          <mxGeometry x="20" y="300" width="90" height="40" as="geometry" />
        </mxCell>
        <mxCell id="wm7McS8ciFP9YZ9LBugO-56" value="" style="endArrow=none;dashed=1;html=1;dashPattern=1 3;strokeWidth=2;entryX=1;entryY=0.75;entryDx=0;entryDy=0;" edge="1" parent="1" target="wm7McS8ciFP9YZ9LBugO-41">
          <mxGeometry width="50" height="50" relative="1" as="geometry">
            <mxPoint x="280" y="310" as="sourcePoint" />
            <mxPoint x="270" y="270" as="targetPoint" />
          </mxGeometry>
        </mxCell>
        <mxCell id="wm7McS8ciFP9YZ9LBugO-57" value="&lt;b&gt;&lt;font style=&quot;font-size: 14px&quot;&gt;Has&lt;/font&gt;&lt;/b&gt;" style="rounded=0;whiteSpace=wrap;html=1;" vertex="1" parent="1">
          <mxGeometry x="280" y="290" width="80" height="40" as="geometry" />
        </mxCell>
        <mxCell id="wm7McS8ciFP9YZ9LBugO-70" value="teacher" style="rounded=1;whiteSpace=wrap;html=1;" vertex="1" parent="1">
          <mxGeometry x="430" y="140" width="80" height="40" as="geometry" />
        </mxCell>
        <mxCell id="wm7McS8ciFP9YZ9LBugO-71" value="" style="endArrow=none;dashed=1;html=1;dashPattern=1 3;strokeWidth=2;entryX=0.5;entryY=1;entryDx=0;entryDy=0;" edge="1" parent="1" target="wm7McS8ciFP9YZ9LBugO-78">
          <mxGeometry width="50" height="50" relative="1" as="geometry">
            <mxPoint x="500" y="140" as="sourcePoint" />
            <mxPoint x="550" y="90" as="targetPoint" />
          </mxGeometry>
        </mxCell>
        <mxCell id="wm7McS8ciFP9YZ9LBugO-72" value="" style="endArrow=none;dashed=1;html=1;dashPattern=1 3;strokeWidth=2;" edge="1" parent="1">
          <mxGeometry width="50" height="50" relative="1" as="geometry">
            <mxPoint x="510" y="160" as="sourcePoint" />
            <mxPoint x="580" y="130" as="targetPoint" />
          </mxGeometry>
        </mxCell>
        <mxCell id="wm7McS8ciFP9YZ9LBugO-73" value="" style="endArrow=none;dashed=1;html=1;dashPattern=1 3;strokeWidth=2;exitX=1;exitY=1;exitDx=0;exitDy=0;entryX=0;entryY=0.5;entryDx=0;entryDy=0;" edge="1" parent="1" source="wm7McS8ciFP9YZ9LBugO-70" target="wm7McS8ciFP9YZ9LBugO-80">
          <mxGeometry width="50" height="50" relative="1" as="geometry">
            <mxPoint x="520" y="170" as="sourcePoint" />
            <mxPoint x="590" y="170" as="targetPoint" />
          </mxGeometry>
        </mxCell>
        <mxCell id="wm7McS8ciFP9YZ9LBugO-74" value="" style="endArrow=none;dashed=1;html=1;dashPattern=1 3;strokeWidth=2;exitX=0.5;exitY=0;exitDx=0;exitDy=0;" edge="1" parent="1" source="wm7McS8ciFP9YZ9LBugO-70">
          <mxGeometry width="50" height="50" relative="1" as="geometry">
            <mxPoint x="450" y="140" as="sourcePoint" />
            <mxPoint x="480" y="70" as="targetPoint" />
          </mxGeometry>
        </mxCell>
        <mxCell id="wm7McS8ciFP9YZ9LBugO-75" value="" style="endArrow=none;dashed=1;html=1;dashPattern=1 3;strokeWidth=2;" edge="1" parent="1">
          <mxGeometry width="50" height="50" relative="1" as="geometry">
            <mxPoint x="480" y="185" as="sourcePoint" />
            <mxPoint x="540" y="220" as="targetPoint" />
          </mxGeometry>
        </mxCell>
        <mxCell id="wm7McS8ciFP9YZ9LBugO-76" value="" style="endArrow=none;dashed=1;html=1;dashPattern=1 3;strokeWidth=2;exitX=1;exitY=1;exitDx=0;exitDy=0;" edge="1" parent="1">
          <mxGeometry width="50" height="50" relative="1" as="geometry">
            <mxPoint x="450" y="180" as="sourcePoint" />
            <mxPoint x="500" y="240" as="targetPoint" />
          </mxGeometry>
        </mxCell>
        <mxCell id="wm7McS8ciFP9YZ9LBugO-77" value="classname" style="ellipse;whiteSpace=wrap;html=1;" vertex="1" parent="1">
          <mxGeometry x="430" y="40" width="90" height="40" as="geometry" />
        </mxCell>
        <mxCell id="wm7McS8ciFP9YZ9LBugO-78" value="section" style="ellipse;whiteSpace=wrap;html=1;" vertex="1" parent="1">
          <mxGeometry x="530" y="50" width="90" height="40" as="geometry" />
        </mxCell>
        <mxCell id="wm7McS8ciFP9YZ9LBugO-79" value="name" style="ellipse;whiteSpace=wrap;html=1;" vertex="1" parent="1">
          <mxGeometry x="580" y="110" width="90" height="40" as="geometry" />
        </mxCell>
        <mxCell id="wm7McS8ciFP9YZ9LBugO-80" value="subject" style="ellipse;whiteSpace=wrap;html=1;" vertex="1" parent="1">
          <mxGeometry x="580" y="160" width="90" height="40" as="geometry" />
        </mxCell>
        <mxCell id="wm7McS8ciFP9YZ9LBugO-81" value="mailid" style="ellipse;whiteSpace=wrap;html=1;" vertex="1" parent="1">
          <mxGeometry x="530" y="200" width="90" height="40" as="geometry" />
        </mxCell>
        <mxCell id="wm7McS8ciFP9YZ9LBugO-82" value="created_on" style="ellipse;whiteSpace=wrap;html=1;" vertex="1" parent="1">
          <mxGeometry x="460" y="240" width="90" height="40" as="geometry" />
        </mxCell>
        <mxCell id="wm7McS8ciFP9YZ9LBugO-83" value="" style="endArrow=none;dashed=1;html=1;dashPattern=1 3;strokeWidth=2;entryX=0.25;entryY=0;entryDx=0;entryDy=0;exitX=0.68;exitY=1.085;exitDx=0;exitDy=0;exitPerimeter=0;" edge="1" parent="1" source="wm7McS8ciFP9YZ9LBugO-84" target="wm7McS8ciFP9YZ9LBugO-70">
          <mxGeometry width="50" height="50" relative="1" as="geometry">
            <mxPoint x="410" y="90" as="sourcePoint" />
            <mxPoint x="450" y="135" as="targetPoint" />
          </mxGeometry>
        </mxCell>
        <mxCell id="wm7McS8ciFP9YZ9LBugO-84" value="#classcode" style="ellipse;whiteSpace=wrap;html=1;" vertex="1" parent="1">
          <mxGeometry x="340" y="60" width="90" height="40" as="geometry" />
        </mxCell>
        <mxCell id="wm7McS8ciFP9YZ9LBugO-85" value="" style="endArrow=none;dashed=1;html=1;dashPattern=1 3;strokeWidth=2;entryX=0;entryY=0.5;entryDx=0;entryDy=0;" edge="1" parent="1" target="wm7McS8ciFP9YZ9LBugO-70">
          <mxGeometry width="50" height="50" relative="1" as="geometry">
            <mxPoint x="360" y="310" as="sourcePoint" />
            <mxPoint x="410" y="260" as="targetPoint" />
          </mxGeometry>
        </mxCell>
        <mxCell id="wm7McS8ciFP9YZ9LBugO-86" value="student_class" style="rounded=1;whiteSpace=wrap;html=1;" vertex="1" parent="1">
          <mxGeometry x="550" y="380" width="90" height="40" as="geometry" />
        </mxCell>
        <mxCell id="wm7McS8ciFP9YZ9LBugO-87" value="" style="endArrow=none;dashed=1;html=1;dashPattern=1 3;strokeWidth=2;entryX=0.5;entryY=1;entryDx=0;entryDy=0;" edge="1" parent="1" target="wm7McS8ciFP9YZ9LBugO-94">
          <mxGeometry width="50" height="50" relative="1" as="geometry">
            <mxPoint x="630" y="380" as="sourcePoint" />
            <mxPoint x="680" y="330" as="targetPoint" />
          </mxGeometry>
        </mxCell>
        <mxCell id="wm7McS8ciFP9YZ9LBugO-88" value="" style="endArrow=none;dashed=1;html=1;dashPattern=1 3;strokeWidth=2;" edge="1" parent="1">
          <mxGeometry width="50" height="50" relative="1" as="geometry">
            <mxPoint x="640" y="400" as="sourcePoint" />
            <mxPoint x="710" y="370" as="targetPoint" />
          </mxGeometry>
        </mxCell>
        <mxCell id="wm7McS8ciFP9YZ9LBugO-89" value="" style="endArrow=none;dashed=1;html=1;dashPattern=1 3;strokeWidth=2;exitX=1;exitY=1;exitDx=0;exitDy=0;entryX=0;entryY=0.5;entryDx=0;entryDy=0;" edge="1" parent="1" source="wm7McS8ciFP9YZ9LBugO-86" target="wm7McS8ciFP9YZ9LBugO-96">
          <mxGeometry width="50" height="50" relative="1" as="geometry">
            <mxPoint x="650" y="410" as="sourcePoint" />
            <mxPoint x="720" y="410" as="targetPoint" />
          </mxGeometry>
        </mxCell>
        <mxCell id="wm7McS8ciFP9YZ9LBugO-90" value="" style="endArrow=none;dashed=1;html=1;dashPattern=1 3;strokeWidth=2;exitX=0.5;exitY=0;exitDx=0;exitDy=0;" edge="1" parent="1" source="wm7McS8ciFP9YZ9LBugO-86">
          <mxGeometry width="50" height="50" relative="1" as="geometry">
            <mxPoint x="580" y="380" as="sourcePoint" />
            <mxPoint x="610" y="310" as="targetPoint" />
          </mxGeometry>
        </mxCell>
        <mxCell id="wm7McS8ciFP9YZ9LBugO-91" value="" style="endArrow=none;dashed=1;html=1;dashPattern=1 3;strokeWidth=2;" edge="1" parent="1">
          <mxGeometry width="50" height="50" relative="1" as="geometry">
            <mxPoint x="610" y="425" as="sourcePoint" />
            <mxPoint x="670" y="460" as="targetPoint" />
          </mxGeometry>
        </mxCell>
        <mxCell id="wm7McS8ciFP9YZ9LBugO-93" value="smailid" style="ellipse;whiteSpace=wrap;html=1;" vertex="1" parent="1">
          <mxGeometry x="560" y="280" width="90" height="40" as="geometry" />
        </mxCell>
        <mxCell id="wm7McS8ciFP9YZ9LBugO-94" value="scontactno" style="ellipse;whiteSpace=wrap;html=1;" vertex="1" parent="1">
          <mxGeometry x="660" y="290" width="90" height="40" as="geometry" />
        </mxCell>
        <mxCell id="wm7McS8ciFP9YZ9LBugO-95" value="scode" style="ellipse;whiteSpace=wrap;html=1;" vertex="1" parent="1">
          <mxGeometry x="710" y="350" width="90" height="40" as="geometry" />
        </mxCell>
        <mxCell id="wm7McS8ciFP9YZ9LBugO-96" value="sname" style="ellipse;whiteSpace=wrap;html=1;" vertex="1" parent="1">
          <mxGeometry x="710" y="400" width="90" height="40" as="geometry" />
        </mxCell>
        <mxCell id="wm7McS8ciFP9YZ9LBugO-97" value="created_on" style="ellipse;whiteSpace=wrap;html=1;" vertex="1" parent="1">
          <mxGeometry x="660" y="440" width="90" height="40" as="geometry" />
        </mxCell>
        <mxCell id="wm7McS8ciFP9YZ9LBugO-99" value="" style="endArrow=none;dashed=1;html=1;dashPattern=1 3;strokeWidth=2;entryX=0.25;entryY=0;entryDx=0;entryDy=0;exitX=0.68;exitY=1.085;exitDx=0;exitDy=0;exitPerimeter=0;" edge="1" parent="1" source="wm7McS8ciFP9YZ9LBugO-100" target="wm7McS8ciFP9YZ9LBugO-86">
          <mxGeometry width="50" height="50" relative="1" as="geometry">
            <mxPoint x="540" y="330" as="sourcePoint" />
            <mxPoint x="580" y="375" as="targetPoint" />
          </mxGeometry>
        </mxCell>
        <mxCell id="wm7McS8ciFP9YZ9LBugO-100" value="#id" style="ellipse;whiteSpace=wrap;html=1;" vertex="1" parent="1">
          <mxGeometry x="470" y="300" width="90" height="40" as="geometry" />
        </mxCell>
        <mxCell id="wm7McS8ciFP9YZ9LBugO-101" value="" style="endArrow=none;dashed=1;html=1;dashPattern=1 3;strokeWidth=2;exitX=0.75;exitY=1;exitDx=0;exitDy=0;entryX=0;entryY=0.5;entryDx=0;entryDy=0;" edge="1" parent="1" target="wm7McS8ciFP9YZ9LBugO-86" source="wm7McS8ciFP9YZ9LBugO-57">
          <mxGeometry width="50" height="50" relative="1" as="geometry">
            <mxPoint x="440" y="600" as="sourcePoint" />
            <mxPoint x="550" y="400" as="targetPoint" />
          </mxGeometry>
        </mxCell>
      </root>
    </mxGraphModel>
  </diagram>
</mxfile>
